<?xml version="1.0" encoding="UTF-8"?>
<svg id="Layer_1" data-name="Layer 1" xmlns="http://www.w3.org/2000/svg" viewBox="0 0 89.1893 17.9265">
  <defs>
    <style>
      .cls-1 {
        fill: #253c73;
      }

      .cls-2 {
        fill: #39b8a2;
      }

      .cls-3 {
        fill: none;
        stroke: #253b72;
        stroke-miterlimit: 10;
        stroke-width: .2px;
      }

      .cls-4 {
        fill: #26c4f4;
      }

      .cls-5 {
        fill: #2a3e71;
      }

      .cls-6 {
        fill: #fdd30e;
      }
    </style>
  </defs>
  <line class="cls-3" x1="49.0167" y1="2.148" x2="49.0167" y2="15.7784"/>
  <g>
    <g>
      <g>
        <path class="cls-5" d="M4.2889,0L0,11.0296h2.3585l.9088-2.5054h4.4015l.9614,2.5054h2.4187L6.6398,0h-2.3509ZM3.9509,6.6657l1.4871-4.0927,1.5174,4.0927h-3.0045Z"/>
        <path class="cls-5" d="M15.9138,7.3627c-.3143-.1657-.7994-.3261-1.4553-.4813-.6558-.1552-1.0688-.3042-1.2388-.447-.1336-.1124-.2004-.248-.2004-.4061,0-.1732.0714-.3117.2142-.415.2215-.1614.5283-.2418.9199-.2418.3797,0,.6642.0751.8541.2258.1897.1506.3135.3976.3712.7414l1.3481-.0595c-.0212-.6143-.2436-1.1054-.6672-1.4736-.4236-.3679-1.0544-.5519-1.8925-.5519-.5131,0-.9511.0774-1.314.2326-.3628.1552-.6407.381-.8335.6773-.1929.2967-.2892.6152-.2892.9557,0,.5293.2049.9779.6148,1.3458.2916.2617.7985.4819,1.5213.6616.5617.1398.9216.2372,1.0794.2918.2308.082.3924.1787.4852.2898.0925.1111.1389.2454.1389.4035,0,.2464-.1101.4617-.3302.6456-.2202.184-.5474.2761-.9815.2761-.41,0-.7356-.1036-.9769-.3104-.2415-.2068-.4017-.5306-.4806-.9717l-1.3117.1278c.0881.7482.3583,1.3177.8108,1.7085.4524.3908,1.1006.5862,1.9447.5862.58,0,1.0642-.0814,1.4528-.2441.3887-.1627.6893-.4114.902-.7459.2124-.3342.3187-.6933.3187-1.0766,0-.4225-.0889-.7776-.2665-1.0652-.1776-.2872-.4236-.514-.7378-.6796Z"/>
        <polygon class="cls-5" points="24.8114 4.3678 23.7864 9.0392 22.6158 4.3678 21.0126 4.3678 19.792 8.9617 18.7855 4.3678 17.4054 4.3678 18.9995 11.0554 20.4615 11.0554 21.7869 6.0557 23.1169 11.0554 24.547 11.0554 26.1686 4.3678 24.8114 4.3678"/>
        <path class="cls-5" d="M28.2636,4.3678l-2.6008,6.6876h1.4301l.5512-1.519h2.6691l.5829,1.519h1.4664l-2.6734-6.6876h-1.4256ZM28.0585,8.4095l.9021-2.4816.9198,2.4816h-1.8219Z"/>
        <path class="cls-5" d="M37.5028,8.665c-.1898-.2036-.4306-.3908-.7221-.561.5862-.0853,1.0263-.2911,1.321-.6182.2944-.3271.4417-.7414.4417-1.2432,0-.3954-.0974-.7466-.2915-1.0537-.1944-.3071-.4532-.5208-.7766-.6407-.3235-.1202-.842-.1804-1.5553-.1804h-2.8377v6.6876h1.3481v-2.792h.2735c.3098,0,.5358.0252.6786.0755.1425.05.2777.1428.4051.2781.1278.1356.3643.4633.7107.9832l.9747,1.4553h1.6124l-.8155-1.3047c-.3218-.5202-.5777-.8819-.7672-1.0857ZM35.428,7.196h-.9975v-1.6967h1.0521c.5466,0,.8747.0075.9838.0225.2186.0366.3878.1242.5081.2624.1199.1385.1797.3202.1797.5453,0,.2006-.0454.3679-.1366.5015-.0912.134-.2173.2284-.378.283-.1611.0549-.5646.082-1.2115.082Z"/>
        <path class="cls-5" d="M39.5978,3.3566c-.0323-.0425-.0578-.0716-.0764-.0869-.0186-.0154-.0451-.0294-.0794-.0425.0964-.0137.1715-.0497.2248-.1078.0533-.0578.0801-.1278.0801-.2094,0-.0591-.0144-.1134-.0425-.1621-.0284-.0487-.0637-.0846-.1059-.1085-.0421-.0235-.1013-.0386-.1774-.0451-.0258-.002-.1464-.0029-.3617-.0029h-.2297v1.1312h.2297v-.4646h.0598c.064,0,.117.016.1588.048.0415.032.0944.1098.1585.233l.0948.1836h.2836l-.1333-.2281c-.0474-.0807-.0752-.1268-.0837-.1379ZM39.3995,3.0645c-.032.0101-.1144.0154-.247.0154h-.0931v-.3088h.0931c.131,0,.213.0052.2464.016.0333.0104.0591.0281.0771.0526.0183.0248.0274.0529.0274.0843,0,.0324-.0095.0614-.0281.0869-.0183.0255-.0438.0435-.0758.0536Z"/>
        <path class="cls-5" d="M40.233,2.6165c-.0961-.1705-.2281-.3019-.3957-.3931-.1679-.0913-.3434-.1371-.526-.1371s-.3581.0457-.5261.1371c-.1679.0912-.2999.2225-.3957.3931-.096.1706-.1441.3493-.1441.5355,0,.1856.0471.3627.1412.5309.0941.1683.2254.2996.3937.3937.1686.0941.3454.1412.5309.1412s.3623-.0471.5306-.1412c.1686-.0941.2996-.2254.394-.3937.0941-.1683.1412-.3454.1412-.5309,0-.1862-.048-.365-.1441-.5355ZM40.0556,3.5794c-.0761.1353-.1817.2411-.3166.3173-.1349.0758-.2771.114-.4264.114-.1483,0-.2901-.0382-.4257-.114-.1353-.0761-.2408-.182-.3166-.3173-.0755-.1356-.1134-.2781-.1134-.4274,0-.1503.0389-.2941.1163-.4313.0774-.1372.1833-.2424.3179-.316.1343-.0732.2751-.1098.4215-.1098.1467,0,.2872.0366.4225.1098.135.0735.2411.1787.3186.316.0774.1372.116.281.116.4313,0,.1493-.0379.2918-.114.4274Z"/>
      </g>
      <g>
        <path class="cls-5" d="M25.6289,13.8156l.3706-.0566c.0158.0719.0478.1264.0959.1636.0482.0372.1156.0559.2024.0559.0955,0,.1674-.0175.2156-.0526.0324-.0245.0486-.0574.0486-.0986,0-.028-.0087-.0512-.0263-.0696-.0184-.0175-.0596-.0337-.1235-.0486-.2979-.0657-.4867-.1256-.5664-.18-.1104-.0754-.1656-.1801-.1656-.3141,0-.1209.0477-.2225.1432-.3049s.2435-.1236.4442-.1236c.191,0,.3329.0311.4258.0934s.1568.1541.1919.2759l-.3482.0644c-.0149-.0543-.0431-.0959-.0848-.1248-.0416-.0289-.101-.0434-.1781-.0434-.0972,0-.1669.0136-.2089.0407-.0281.0193-.0421.0442-.0421.0749,0,.0263.0123.0486.0368.067.0333.0245.1483.0591.345.1038.1967.0447.334.0994.4119.1643.0771.0657.1156.1573.1156.2747,0,.1279-.0534.2379-.1603.3299-.1069.092-.265.138-.4744.138-.1901,0-.3406-.0386-.4514-.1156-.1109-.0771-.1834-.1818-.2175-.3141Z"/>
        <path class="cls-5" d="M27.2558,12.6289v-.3417h.3693v.3417h-.3693ZM27.2558,14.2138v-1.3956h.3693v1.3956h-.3693Z"/>
        <path class="cls-5" d="M29.273,14.2138h-.3692v-.7122c0-.1507-.0079-.2482-.0236-.2924-.0158-.0442-.0414-.0786-.0769-.1031-.0354-.0245-.0781-.0368-.1281-.0368-.064,0-.1214.0175-.1722.0526-.0508.035-.0856.0814-.1044.1393-.0189.0578-.0283.1647-.0283.3207v.6321h-.3692v-1.3956h.3429v.205c.1218-.1577.2752-.2366.46-.2366.0814,0,.1559.0147.2234.0441s.1185.0668.1531.1124c.0346.0455.0587.0972.0723.1551.0136.0578.0204.1406.0204.2484v.8673Z"/>
        <path class="cls-5" d="M30.8645,13.2308l-.3641.0657c-.0122-.0727-.0401-.1275-.0834-.1643s-.0996-.0552-.1689-.0552c-.092,0-.1654.0318-.2201.0953-.0548.0635-.0821.1697-.0821.3187,0,.1656.0278.2826.0834.3509.0556.0683.1303.1025.2241.1025.0701,0,.1274-.0199.1721-.0599.0446-.0399.0762-.1084.0946-.2057l.3627.0618c-.0376.1664-.1099.2922-.2168.3772-.1069.085-.2502.1275-.4297.1275-.2042,0-.3669-.0644-.4882-.1932-.1214-.1288-.182-.3071-.182-.5349,0-.2304.0609-.4098.1826-.5381.1218-.1284.2865-.1926.4942-.1926.1699,0,.3051.0366.4054.1097.1003.0732.1724.1846.2162.3345Z"/>
        <path class="cls-5" d="M31.9526,13.7696l.3679.0617c-.0473.1349-.122.2377-.2241.3082-.1021.0705-.2297.1058-.383.1058-.2427,0-.4223-.0793-.5388-.2379-.092-.1271-.138-.2874-.138-.481,0-.2313.0604-.4124.1814-.5434.1209-.131.2737-.1965.4586-.1965.2077,0,.3715.0686.4915.2057.12.1371.1774.3472.1721.6301h-.9252c.0026.1095.0324.1947.0894.2556.0569.0609.1279.0914.2129.0914.0578,0,.1064-.0158.1459-.0473.0394-.0316.0692-.0824.0894-.1524ZM31.9736,13.3964c-.0026-.1069-.0302-.1882-.0828-.2438s-.1165-.0834-.1919-.0834c-.0806,0-.1471.0294-.1997.088-.0526.0587-.0784.1384-.0776.2392h.5519Z"/>
        <path class="cls-5" d="M34.255,14.2138h-.3692v-1.3917c-.1349.1261-.2939.2194-.4771.2799v-.3352c.0964-.0315.2011-.0913.3141-.1794.1131-.0881.1906-.1907.2327-.3082h.2996v1.9344Z"/>
        <path class="cls-5" d="M34.8149,13.7682l.3574-.0394c.0088.0728.0316.1266.0684.1616.0368.0351.0854.0526.1459.0526.0762,0,.141-.035.1945-.1051.0534-.0701.0876-.2155.1025-.4363-.0929.1078-.2089.1616-.3483.1616-.1516,0-.2823-.0584-.3922-.1754-.11-.1169-.1649-.2692-.1649-.4567,0-.1954.058-.3529.1741-.4724.1161-.1196.2639-.1794.4435-.1794.1954,0,.3557.0756.4809.2267.1253.1511.1879.3997.1879.7458,0,.3522-.0653.6063-.1958.7622-.1306.1559-.3005.2339-.5099.2339-.1507,0-.2725-.0401-.3654-.1202s-.1524-.1999-.1787-.3594ZM35.6507,12.9614c0-.1191-.0274-.2116-.0821-.2773-.0548-.0657-.1181-.0986-.1899-.0986-.0684,0-.1251.027-.1702.0809s-.0676.1421-.0676.2648c0,.1244.0245.2157.0736.274s.1104.0874.1839.0874c.071,0,.1308-.028.1794-.0841.0486-.0561.0729-.1384.0729-.2471Z"/>
        <path class="cls-5" d="M36.6205,13.1743c-.0955-.0403-.1649-.0957-.2083-.1663-.0434-.0705-.065-.1478-.065-.2319,0-.1436.0501-.2624.1504-.3562.1003-.0937.2429-.1406.4278-.1406.1831,0,.3252.0469.4264.1406.1011.0938.1518.2125.1518.3562,0,.0894-.0233.1689-.0697.2385s-.1116.1229-.1958.1597c.1069.0429.1882.1056.2438.1879.0556.0824.0834.1774.0834.2852,0,.1779-.0567.3224-.1701.4337-.1135.1113-.2644.1669-.4527.1669-.1752,0-.3212-.046-.4377-.1379-.1375-.1086-.2063-.2576-.2063-.4469,0-.1042.0259-.1999.0775-.2871.0517-.0872.1332-.1544.2444-.2017ZM36.6626,13.6277c0,.1016.0261.1809.0782.2379.0521.0569.1171.0854.1952.0854.0762,0,.1393-.0274.1892-.0821.0499-.0548.0749-.1339.0749-.2372,0-.0902-.0254-.1627-.0762-.2175-.0509-.0547-.1152-.0821-.1932-.0821-.0902,0-.1575.0311-.2017.0933-.0442.0622-.0664.1297-.0664.2024ZM36.6967,12.8023c0,.0736.0209.131.0624.1721.0416.0412.0971.0618.1663.0618.0701,0,.1261-.0208.1681-.0624.0421-.0416.0631-.0992.0631-.1728,0-.0692-.0209-.1246-.0624-.1663-.0416-.0416-.0966-.0624-.1649-.0624-.071,0-.1275.0211-.1695.0631-.0421.042-.0631.0976-.0631.1669Z"/>
        <path class="cls-5" d="M39.0517,12.759l-.3574.0394c-.0088-.0736-.0316-.1279-.0684-.1629-.0368-.0351-.0846-.0526-.1432-.0526-.078,0-.1439.035-.1978.1051-.0539.0701-.0879.216-.1019.4377.092-.1086.2064-.1629.343-.1629.1542,0,.2863.0586.3962.1761s.1649.2689.1649.4547c0,.1972-.0579.3553-.1735.4744s-.2642.1787-.4454.1787c-.1945,0-.3544-.0756-.4797-.2267-.1253-.1511-.1879-.3988-.1879-.7431,0-.3531.0652-.6076.1958-.7635.1305-.1559.3-.2339.5086-.2339.1463,0,.2674.0409.3634.1229s.157.2009.1833.3568ZM38.2146,13.5646c0,.12.0276.2127.0828.2779s.1183.0979.1892.0979c.0684,0,.1253-.0267.1709-.0801.0455-.0534.0683-.1411.0683-.2628,0-.1253-.0245-.2171-.0736-.2754-.0491-.0582-.1104-.0874-.1839-.0874-.071,0-.131.0278-.1801.0834s-.0736.1378-.0736.2464Z"/>
      </g>
    </g>
    <g>
      <polygon class="cls-1" points="63.1372 5.2095 63.1372 0 60.6051 0 55.8865 5.8007 55.8865 6.5258 56.3606 6.3501 56.8458 6.1661 58.1425 5.8397 58.7701 5.731 61.0456 2.3342 61.0707 5.3461 63.1372 5.2095"/>
      <polygon class="cls-1" points="63.1372 9.9706 61.0519 9.9706 61.0519 7.6374 63.1372 7.1667 63.1372 9.9706"/>
      <g>
        <path class="cls-1" d="M58.7325,16.5621l-.0023-.4301.7541-.0041c.0786-.0004.1423-.0067.1914-.0187.049-.012.0866-.0289.1126-.0507.0261-.0217.0436-.0477.0526-.0779.009-.0302.0134-.0629.0132-.0983-.0003-.0628-.0197-.1308-.058-.2039-.0384-.0731-.0889-.1471-.1514-.2221-.0626-.0749-.1331-.1492-.2113-.2227-.0783-.0735-.1576-.1422-.2378-.2059l.3673-.3633c.2564.2094.4519.4136.5866.6125.1346.1989.2024.3881.2034.5674.0005.0956-.0144.1863-.0447.2722-.0303.0859-.0803.1615-.15.2267-.0697.0652-.1604.1171-.2721.1556-.1117.0386-.2481.0583-.4091.0592l-.7443.004ZM61.7242,16.546c-.1767.001-.3261-.0221-.4481-.0693-.122-.0471-.2209-.1084-.2966-.184-.0757-.0755-.1305-.1597-.1644-.2525-.0339-.0928-.0511-.1837-.0515-.2727-.0006-.1191.0207-.2328.064-.3411.0433-.1082.105-.2035.185-.2858.0801-.0822.1769-.1479.2906-.197.1136-.049.2412-.074.3826-.0747.0576-.0003.1179.0046.1808.0147.0629.0102.1245.0285.1849.055.0603.0265.1175.0625.1714.1081.0539.0456.1017.1032.1433.173.0416.0698.0748.1531.0995.2499.0247.0968.0375.2093.0381.3376l.0016.3044.3554-.0019c.0366-.0002.0655.0023.0864.0074.021.0051.0364.0136.0463.0253.0099.0117.0159.0264.0179.0441.0021.0177.0032.039.0033.0638l.0007.1375c.0002.0341-.0016.0609-.0055.0805-.0038.0197-.0116.0348-.0233.0453-.0117.0106-.0274.0175-.047.0209-.0196.0034-.0451.0052-.0766.0053l-.3869.0021c-.0465.1259-.1149.2382-.2054.3369-.0905.0987-.1974.1843-.3207.257-.1233.0727-.2605.1317-.4115.177-.151.0453-.3102.0769-.4777.0949l-.0494-.42c.1204-.0085.2316-.0261.3336-.0529.102-.0268.1931-.06.2734-.0997.0803-.0397.1494-.0843.2074-.1337.058-.0494.1032-.1017.1356-.1569l-.2376.0013ZM61.9988,16.1145l-.001-.1885c-.0007-.1348-.0121-.2444-.0342-.3288-.0221-.0843-.0506-.1503-.0855-.1979-.035-.0476-.0747-.0798-.1193-.0966-.0446-.0168-.0898-.025-.1356-.0248-.0498.0003-.0978.011-.1442.0322-.0464.0212-.0871.0509-.1223.089-.0351.0382-.0634.0838-.0847.1369-.0213.0531-.0318.1118-.0315.1759.0007.1257.0395.2247.1165.2969.077.0722.1979.1079.3629.107l.2789-.0015ZM64.9854,16.5285c-.148.0008-.2897-.0043-.4253-.0154-.1356-.0111-.2545-.0254-.3567-.0433-.0746.0109-.156.0205-.2443.0288-.0883.0083-.1796.0151-.2738.0201-.0942.0051-.1892.0095-.2847.0133-.0956.0038-.1885.0059-.2788.0064l-.269.0014c-.0314.0002-.0576-.0013-.0786-.0045-.0209-.0031-.0377-.0099-.0502-.0204-.0125-.0104-.0214-.0254-.0268-.045-.0053-.0196-.0081-.0464-.0083-.0805l-.0007-.1375c-.0001-.0249.0014-.0462.0046-.0638.0032-.0177.01-.0325.0204-.0443.0104-.0118.0264-.0204.048-.0258.0216-.0053.0514-.0081.0893-.0083l.491-.0026c-.0264-.0339-.0495-.0707-.0693-.1106-.0199-.0398-.0365-.0793-.0497-.1185-.0133-.0392-.0233-.0768-.0301-.1128-.0068-.036-.0102-.0677-.0103-.0952-.0006-.11.0204-.2145.0631-.3136.0427-.0991.1044-.1865.1852-.2622.0808-.0757.1783-.1358.2926-.1803.1143-.0445.2435-.0671.3875-.0679.127-.0007.2397.0183.3381.0571.0984.0387.1812.0917.2483.1587.0671.0671.1179.1457.1525.2358.0345.0902.0521.1856.0526.2864.0002.0432-.0038.0884-.012.1356-.0083.0472-.0185.0937-.0307.1396-.0122.0459-.0254.0895-.0396.1308-.0142.0413-.0278.0777-.0407.1092l.4752-.0026c.0366-.0002.0661.0023.0884.0074.0223.0051.0387.0135.0492.0253.0105.0117.0175.0264.0209.0441.0033.0177.0051.0389.0053.0638l.0007.1375c.0002.0341-.0023.0609-.0074.0806-.0051.0197-.0139.0348-.0263.0453-.0124.0106-.0291.0175-.05.0209-.0209.0034-.0471.0052-.0785.0053l-.271.0015ZM63.4744,14.1878c-.0002-.0353.0062-.0681.0191-.0983.0129-.0302.0308-.0568.0536-.0798.0228-.023.0492-.0412.0792-.0544.03-.0132.0627-.02.0981-.0202.0353-.0002.0681.0062.0983.0191.0302.0129.0568.0308.0798.0536.023.0228.0412.0492.0544.0792.0132.0301.02.0627.0202.0981.0002.0353-.0062.0681-.0191.0983-.0129.0302-.0308.0568-.0536.0798-.0228.023-.0492.0412-.0792.0544-.0301.0133-.0627.02-.0981.0202-.0353.0002-.0681-.0062-.0983-.0191-.0302-.0129-.0568-.0308-.0798-.0536-.023-.0228-.0412-.0492-.0544-.0792-.0133-.03-.02-.0627-.0202-.0981ZM63.6707,15.6243c.0004.0733.0142.1394.0413.1981.0271.0588.0637.109.1098.1506.046.0417.0999.0738.1616.0963.0616.0226.1278.0337.1985.0333l.0766-.0004c.0129-.0249.0272-.0545.0427-.0886.0155-.0341.0297-.0709.0426-.1102.0129-.0393.0234-.0806.0317-.1239.0083-.0432.0123-.0858.0121-.1277-.0004-.0668-.0102-.1259-.0294-.1776-.0193-.0516-.045-.0947-.0773-.1292-.0323-.0345-.0691-.0605-.1104-.078-.0413-.0175-.0836-.0261-.1268-.0258-.0458.0002-.0913.008-.1364.0233-.0451.0153-.0852.0388-.1204.0704-.0352.0316-.0634.0714-.0848.1193-.0213.0479-.0318.1046-.0315.17ZM64.0636,14.1847c-.0002-.0353.0062-.0681.0191-.0983.0129-.0302.0308-.0568.0536-.0798.0228-.023.0492-.0412.0792-.0544.03-.0132.0627-.02.0981-.0202.0353-.0002.0681.0062.0983.0191.0302.0129.0568.0308.0798.0536.023.0228.0412.0492.0544.0792.0132.0301.02.0627.0202.0981.0002.0353-.0062.0681-.0191.0983-.0129.0302-.0308.0568-.0536.0798-.0228.023-.0492.0412-.0792.0544-.0301.0133-.0627.02-.0981.0202-.0353.0002-.0681-.0062-.0983-.0191-.0302-.0129-.0568-.0308-.0798-.0536-.023-.0228-.0412-.0492-.0544-.0792-.0133-.03-.02-.0627-.0202-.0981ZM66.8775,15.3302c-.021-.0064-.0475-.0138-.0797-.0222-.0321-.0083-.0669-.0163-.1042-.024-.0374-.0077-.0764-.014-.117-.019-.0406-.005-.0799-.0074-.1179-.0072-.0419.0002-.0851.0063-.1295.0184-.0445.012-.0853.0322-.1224.0606-.0372.0284-.0674.0668-.0907.1154-.0233.0486-.0348.1095-.0344.1828.0004.0668.0115.1279.0334.1834.0219.0555.0529.1035.0931.1438.0401.0404.0878.0719.1429.0945.0551.0226.116.0337.1828.0334l.5577-.003.0023.4301-1.842.0099c-.0314.0002-.057-.0013-.0766-.0045-.0197-.0031-.0354-.0099-.0472-.0204-.0118-.0104-.0198-.0254-.0238-.045-.004-.0196-.0061-.0464-.0063-.0805l-.0007-.1375c-.0001-.0249.0007-.0462.0026-.0638.0019-.0177.0077-.0324.0174-.0443.0098-.0118.0248-.0204.045-.0258.0203-.0053.0494-.0081.0873-.0083l.436-.0023c-.012-.0314-.0233-.065-.0339-.101-.0107-.0359-.02-.0722-.0281-.1088-.0081-.0366-.0145-.0719-.0192-.1059-.0048-.034-.0072-.0654-.0074-.0942-.0006-.1165.02-.2272.062-.3322.042-.105.1011-.1969.1772-.2759.0762-.079.1675-.1416.2739-.188.1064-.0464.2238-.0699.3521-.0706.0301-.0002.0661.0013.108.0043.0419.0031.0851.0074.1297.013.0445.0057.0871.0126.1278.0209.0406.0083.074.0176.1003.0279l-.0506.4461ZM70.0795,15.8275c.0003.0471.0027.0861.0075.1168.0047.0308.014.0556.0279.0745.0138.0189.0329.0322.0572.04.0243.0077.0567.0115.0973.0113l.1414-.0008c.0366-.0002.0655.0023.0864.0074.021.0051.0364.0136.0463.0253s.0159.0264.0179.0441c.0021.0177.0032.039.0033.0638l.0007.1375c.0002.0341-.0016.0609-.0055.0805-.0038.0197-.0116.0348-.0233.0453-.0117.0106-.0274.0175-.047.0209-.0196.0034-.0451.0052-.0766.0053l-.2298.0012c-.089.0005-.1657-.006-.2299-.0194-.0642-.0134-.119-.0314-.1643-.0541-.0453-.0226-.0824-.0493-.1114-.0799-.029-.0306-.0521-.0635-.0693-.0988-.0849.045-.1672.0768-.2469.0956-.0798.0188-.1635.0284-.2512.0288-.0877.0005-.1768-.0111-.2673-.0349-.0905-.0237-.1725-.0609-.2461-.1116-.0736-.0507-.1339-.1161-.1807-.1964-.0469-.0803-.0707-.1767-.0713-.2893-.0005-.0995.0186-.1896.0575-.2703s.0911-.1533.1569-.2179c.0658-.0645.1407-.1218.2249-.1721.0842-.0502.1716-.0942.2624-.132.0908-.0378.1813-.07.2715-.0967.0902-.0267.1732-.0494.249-.0681l-.0012-.2219.5067-.0027.0068,1.2686ZM69.5693,15.1822c-.1125.0242-.2138.0525-.3039.0851-.0902.0326-.1675.0696-.2321.1112-.0646.0416-.1141.0883-.1485.1402-.0344.0519-.0515.1093-.0511.1721.0003.0511.0106.0942.0311.1294.0205.0352.0468.0636.079.085.0322.0214.0686.0366.1092.0456.0406.009.0812.0133.1218.0131.0746-.0004.1466-.0113.2158-.0326.0693-.0213.13-.0491.1822-.0835l-.0036-.6657ZM68.9466,14.0563c-.0002-.0353.0062-.0681.0191-.0983.0129-.0302.0308-.0568.0536-.0798.0228-.023.0492-.0412.0792-.0544.03-.0132.0627-.02.0981-.0202.0353-.0002.0681.0062.0983.0191.0302.0129.0568.0308.0798.0536.023.0228.0412.0492.0544.0792.0132.0301.02.0627.0202.0981.0002.0353-.0062.0681-.0191.0983-.0129.0302-.0308.0568-.0536.0798-.0228.023-.0492.0412-.0792.0544-.0301.0133-.0627.02-.0981.0202-.0353.0002-.0681-.0062-.0983-.0191-.0302-.0129-.0568-.0308-.0798-.0536-.023-.0228-.0412-.0492-.0544-.0792-.0133-.03-.02-.0627-.0202-.0981ZM69.5358,14.0531c-.0002-.0353.0062-.0681.0191-.0983.0129-.0302.0308-.0568.0536-.0798.0228-.023.0492-.0412.0792-.0544.03-.0132.0627-.02.0981-.0202.0353-.0002.0681.0062.0983.0191.0302.0129.0568.0308.0798.0536.023.0228.0412.0492.0544.0792.0132.0301.02.0627.0202.0981s-.0062.0681-.0191.0983c-.0129.0302-.0308.0568-.0536.0798-.0228.023-.0492.0412-.0792.0544-.0301.0133-.0627.02-.0981.0202-.0353.0002-.0681-.0062-.0983-.0191-.0302-.0129-.0568-.0308-.0798-.0536-.023-.0228-.0412-.0492-.0544-.0792-.0133-.03-.02-.0627-.0202-.0981ZM72.8459,16.335c.0002.0341-.0016.0609-.0055.0805-.0038.0197-.0116.0348-.0233.0453-.0117.0106-.0274.0175-.047.0209-.0196.0034-.0451.0052-.0766.0053l-.3024.0016c-.0982.0005-.1915-.0061-.28-.0201-.0884-.0139-.17-.0315-.2448-.0527s-.1413-.0441-.1997-.0686c-.0584-.0245-.1073-.0466-.1467-.066-.0535.0278-.1126.0546-.1773.0805-.0647.0259-.1336.0488-.2068.0689-.0732.02-.1504.0362-.2315.0484-.0811.0122-.1649.0186-.2513.019l-.2573.0014c-.0314.0002-.057-.0013-.0766-.0045-.0197-.0031-.0354-.0099-.0472-.0204-.0118-.0104-.0198-.0254-.0238-.045-.004-.0196-.0061-.0464-.0063-.0805l-.0007-.1375c-.0001-.0249.0007-.0462.0026-.0638.0019-.0177.0077-.0324.0174-.0443.0098-.0118.0248-.0204.045-.0258.0203-.0053.0494-.0081.0873-.0083l.2828-.0015c.106-.0006.2019-.0076.2876-.0212.0857-.0135.1514-.029.1971-.0462-.0382-.0325-.0767-.0693-.1155-.1103-.0389-.041-.0764-.0824-.1126-.1241-.0362-.0417-.0699-.0821-.1008-.1212-.031-.0391-.0577-.0736-.0801-.1037-.0356-.0482-.0646-.0867-.087-.1154-.0224-.0287-.0389-.0489-.0494-.0606.0051-.0275.0137-.06.026-.0974.0122-.0374.0261-.0744.0416-.1112.0155-.0367.0327-.0699.0515-.0995.0188-.0296.038-.0503.0576-.0622.0431-.0225.0953-.0467.1567-.0725.0614-.0259.1303-.0498.2068-.0718.0765-.022.1595-.0404.2491-.0553.0896-.0149.1835-.0226.2817-.0231.0798-.0004.1607.007.2427.0223.0819.0153.1563.0394.2233.0724s.1218.0763.1647.1297c.0428.0535.0645.1175.0649.1921.0002.0393-.0054.0855-.0169.1385-.0115.0531-.0335.1134-.0658.181-.0324.0676-.0768.1418-.1333.2226s-.1297.168-.2195.2614c.0315.009.0682.0176.1101.0259.0419.0083.0868.0152.1346.0209.0478.0056.0976.0103.1493.0139.0517.0037.1025.0053.1522.0051l.1983-.0011c.0366-.0002.0655.0023.0864.0074.021.0051.0364.0136.0463.0253.0099.0117.0159.0264.0179.0441.0021.0177.0032.039.0033.0638l.0007.1375ZM71.5549,15.8333c.0639-.0475.1176-.0939.1613-.1393.0436-.0454.0791-.0888.1063-.1302s.047-.0795.0593-.1142c.0122-.0347.0183-.0639.0182-.0875-.0002-.0288-.0088-.0556-.026-.0804-.0172-.0248-.0415-.0462-.073-.0644-.0315-.0181-.0689-.0327-.1122-.0436-.0433-.0109-.0911-.0162-.1434-.0159-.0314.0002-.0671.003-.107.0084-.0399.0055-.0811.0135-.1236.0242-.0425.0107-.0847.0234-.1265.038-.0418.0146-.081.0306-.1176.0478.0198.034.0482.076.0851.1262.0369.0502.0778.1017.1226.1545.0448.0528.0912.1039.1393.1534.048.0495.0938.0905.1371.123ZM72.6763,16.4871c-.0314.0002-.057-.0013-.0766-.0045-.0197-.0031-.0354-.0099-.0472-.0204-.0118-.0104-.0198-.0254-.0238-.045s-.0061-.0464-.0063-.0805l-.0007-.1375c-.0001-.0249.0007-.0462.0026-.0638.0019-.0177.0077-.0324.0174-.0443.0098-.0118.0248-.0204.045-.0258.0203-.0053.0494-.0081.0873-.0083l.5027-.0027-.0063-1.1802.5106-.0027.0087,1.6103-1.0133.0055ZM73.2783,17.0475c-.0002-.0353.0062-.0681.0191-.0983.0129-.0302.0308-.0568.0536-.0798.0228-.023.0492-.0412.0792-.0544.03-.0133.0627-.02.0981-.0202.0353-.0002.0681.0062.0983.0191.0302.0129.0568.0308.0798.0536.023.0228.0412.0492.0544.0792.0132.03.02.0627.0202.0981.0002.0353-.0062.0681-.0191.0983-.0129.0302-.0308.0568-.0536.0798-.0228.023-.0492.0412-.0792.0544-.0301.0132-.0627.02-.0981.0202-.0353.0002-.0681-.0062-.0983-.0191-.0302-.0129-.0568-.0308-.0798-.0536-.023-.0228-.0412-.0492-.0544-.0792-.0133-.0301-.02-.0627-.0202-.0981ZM73.9353,16.8554c.1138-.0229.2059-.0515.2764-.0859.0705-.0344.1253-.077.1643-.1276.039-.0506.0652-.1103.0786-.1791.0134-.0688.0198-.149.0193-.2407l-.0073-1.355.5106-.0027.0067,1.2529c.001.1898-.0165.3526-.0524.4883-.0359.1357-.0936.2496-.1729.3417-.0794.0921-.1814.1653-.3062.2196-.1247.0543-.2754.0957-.452.1242l-.0652-.4356ZM77.8878,13.637l.0152,2.822-2.4194.013-.0023-.4301.8798-.0047-.0093-1.7281.5106-.0027.0093,1.7281.5184-.0028-.0129-2.3919.5106-.0027ZM76.9353,13.6264c-.021-.0038-.0482-.0076-.0816-.0113-.0334-.0037-.0612-.0056-.0835-.0054-.0419.0002-.0759.0092-.102.0271-.0261.0178-.039.049-.0388.0935.0002.0445.0197.0834.0586.1165.0388.0332.0988.0495.18.0491l.1139-.0006.0013.2376-.7305.0039-.0013-.2376.1925-.001c-.0211-.0261-.0406-.058-.0585-.0959-.0179-.0379-.0269-.0777-.0272-.1196-.0002-.0393.0071-.0776.022-.115.0148-.0374.0386-.0709.0711-.1005.0325-.0296.074-.0534.1243-.0714.0503-.0179.1101-.0271.1795-.0275.0301-.0002.0625.0006.0972.0024.0347.0018.075.0065.1209.0141l-.038.2418ZM79.3037,17.0289c-.0006-.1152.0126-.2207.0395-.3164.027-.0957.0655-.1817.1155-.2579.05-.0762.1102-.1433.1806-.2013.0704-.058.1487-.1068.2349-.1466-.0633-.0926-.1057-.1817-.1271-.2674-.0214-.0856-.0323-.1625-.0327-.2306-.0006-.1165.02-.2272.062-.3322.042-.105.1011-.1969.1772-.2759.0762-.079.1671-.1416.2729-.188.1058-.0464.2228-.0699.3512-.0706.0301-.0002.0661.0013.108.0043.0419.0031.0848.0074.1287.0131.0439.0057.0865.0126.1278.0209.0413.0083.0757.0176.1033.0279l-.0467.446c-.0826-.0244-.1583-.0427-.2271-.0547-.0688-.0121-.1327-.0179-.1916-.0176-.0419.0002-.0854.0064-.1305.0184-.0451.012-.0862.0322-.1234.0606-.0372.0284-.0677.0668-.0917.1154-.024.0486-.0357.1095-.0353.1828.0004.0668.0115.1279.0334.1834.0219.0555.0526.1035.0921.1438.0395.0404.0868.0719.1419.0945.0551.0226.1161.0337.1828.0334l.5597-.003.0023.4301-.9073.0049c-.0759.0004-.1456.0129-.2089.0375-.0634.0246-.1182.0602-.1644.1069-.0462.0467-.0819.1035-.1071.1704-.0252.0669-.0375.1429-.0371.228.0004.0655.0118.1299.0344.1933.0226.0634.0579.1198.106.1693.048.0495.1098.0894.1852.1198.0754.0303.1668.0453.2742.0447.0615-.0003.1338-.0066.2169-.0188.0831-.0122.1658-.0271.2482-.0445l.0021.3987c-.0484.012-.0929.0227-.1334.0321-.0405.0094-.0794.0171-.1167.0232s-.0743.0109-.1109.0143c-.0366.0035-.0753.0053-.1158.0055-.1859.001-.3461-.024-.4806-.075-.1345-.051-.2455-.1185-.333-.2025-.0875-.084-.1525-.1802-.195-.2886-.0425-.1085-.064-.219-.0646-.3315ZM81.6075,13.619l.5106-.0027.0152,2.822-.5106.0027-.0152-2.822ZM82.4655,16.4345l-.0023-.4301.7541-.0041c.0786-.0004.1423-.0067.1914-.0187.049-.012.0866-.0289.1127-.0507.0261-.0217.0436-.0477.0526-.0779.009-.0302.0134-.0629.0132-.0983-.0003-.0628-.0197-.1308-.0581-.2039-.0384-.0731-.0889-.1471-.1514-.2221-.0626-.0749-.1331-.1492-.2113-.2227-.0783-.0735-.1576-.1422-.2378-.2059l.3672-.3633c.2564.2094.4519.4136.5866.6125.1346.1989.2024.3881.2034.5674.0003.0642-.0065.127-.0206.1886.0669.0311.1394.0536.2174.0676.078.014.1595.0207.2446.0203h.0157c.0366-.0003.0655.0022.0864.0073.021.0051.0364.0136.0463.0253s.0159.0264.0179.0441.0032.039.0033.0638l.0007.1375c.0002.0341-.0016.0609-.0055.0805-.0038.0197-.0116.0348-.0233.0453-.0117.0106-.0274.0175-.047.0209-.0196.0034-.0451.0052-.0766.0053h-.0216c-.148.0009-.2731-.0174-.3754-.0548-.1023-.0374-.1897-.0867-.262-.1478-.0703.0645-.1608.1154-.2712.1527-.1105.0373-.2455.0563-.4052.0572l-.7443.004ZM84.5287,16.4234c-.0314.0002-.057-.0013-.0766-.0045-.0197-.0031-.0354-.0099-.0472-.0204-.0118-.0104-.0198-.0254-.0238-.045s-.0061-.0464-.0063-.0805l-.0007-.1375c-.0001-.0249.0007-.0462.0026-.0638.0019-.0177.0077-.0324.0174-.0443.0098-.0118.0248-.0204.045-.0258.0203-.0053.0494-.0081.0873-.0083l.5027-.0027-.0063-1.1802.5106-.0027.0087,1.6103-1.0133.0055ZM85.1307,16.9838c-.0002-.0353.0062-.0681.0191-.0983.0129-.0302.0308-.0568.0536-.0798.0228-.023.0492-.0412.0792-.0544.03-.0133.0627-.02.0981-.0202.0353-.0002.0681.0062.0983.0191.0302.0129.0568.0308.0798.0536.023.0228.0412.0492.0544.0792.0132.03.02.0627.0202.0981.0002.0353-.0062.0681-.0191.0983-.0129.0302-.0308.0568-.0536.0798-.0228.023-.0492.0412-.0792.0544-.0301.0132-.0627.02-.0981.0202-.0353.0002-.0681-.0062-.0983-.0191-.0302-.0129-.0568-.0308-.0798-.0536-.023-.0228-.0412-.0492-.0544-.0792-.0133-.0301-.02-.0627-.0202-.0981ZM86.5996,16.9503c-.021-.0038-.0482-.0076-.0816-.0113-.0334-.0037-.0612-.0056-.0835-.0054-.0419.0002-.0759.0092-.102.0271-.0261.0178-.039.049-.0388.0935.0002.0445.0198.0834.0586.1165.0388.0332.0988.0495.18.0491l.1139-.0006.0013.2376-.7305.0039-.0013-.2376.1925-.001c-.0211-.0261-.0406-.0581-.0585-.0959-.0179-.0379-.0269-.0778-.0272-.1196-.0002-.0393.0071-.0776.022-.115.0148-.0374.0386-.0709.0711-.1005.0326-.0296.074-.0534.1243-.0714.0503-.0179.1101-.0271.1795-.0275.0301-.0002.0625.0006.0972.0024.0347.0018.075.0065.1209.0141l-.038.2418ZM86.0395,13.5951l.5106-.0027.0152,2.822-.5106.0027-.0152-2.822Z"/>
        <path class="cls-1" d="M67.6519,0C65.1584,0,63.1372,2.232,63.1372,4.9852s2.0212,4.9854,4.5146,4.9854,4.5149-2.2322,4.5149-4.9854S70.1453,0,67.6519,0M67.6748,8.5289c-1.3326,0-2.4129-1.5968-2.4129-3.5663s1.0803-3.5664,2.4129-3.5664,2.4129,1.5965,2.4129,3.5664-1.0803,3.5663-2.4129,3.5663"/>
        <polygon class="cls-6" points="67.0759 7.4419 66.0091 7.597 65.5231 7.041 66.344 6.9556 67.0759 7.4419"/>
        <path class="cls-6" d="M72.1569,4.7364c-.0961.7022-.6509,1.1103-1.1346,1.3538-.8847.4452-2.0025.5712-2.9458.6874-.6725.0828-1.3441.1497-2.0134.2193.024.0322.0545.06.0854.0856.0967.0802.2006.1533.3045.2245.0966.0662.1954.1292.2974.1871.6565-.0909,1.3276-.1834,2.0204-.2943.9785-.1565,2.8185-.4873,3.3026-1.7493.0684-.1782.1999-.5477.0835-.7142"/>
        <path class="cls-1" d="M55.8906,6.1962c.2662-.1204.6572-.1933.9394-.293,3.2679-1.1535,6.6913-1.0845,10.1396-1.2923,1.0505-.0633,2.2955-.1286,3.2825-.4649.5396-.184,1.1592-.501,1.2698-1.0759.1287.1411-.0195.4408-.0966.5853-.5451,1.0226-2.5949,1.2319-3.685,1.3272-4.1195.3602-7.5608.3122-11.4131,1.9124-.1223.0508-.312.122-.4408.1365l.0042-.8354Z"/>
        <path class="cls-2" d="M55.9174,8.6596c.2843-.1337.6793-.2832.9768-.4021,3.387-1.3529,6.9376-1.6667,10.5408-2.1581,1.0976-.1496,2.3993-.3168,3.4085-.7474.5519-.2354,1.1771-.6166,1.2473-1.2276.1465.1376.0147.4633-.0547.6208-.4908,1.1143-2.6259,1.4962-3.7626,1.6825-4.2956.7042-7.9117.9269-11.8282,2.9086-.1243.063-.3773.2137-.5114.2392l-.0164-.9159Z"/>
        <path class="cls-4" d="M55.9012,7.3436c.2827-.1211.7315-.2547,1.0266-.3609,3.3597-1.2078,6.8441-1.3934,10.3858-1.7509,1.0789-.1088,2.3581-.228,3.3602-.6147.548-.2114,1.1726-.5631,1.2623-1.1584.1386.1396-.0016.4538-.0748.6054-.5185,1.0734-2.6203,1.374-3.7387,1.5174-4.2264.5421-7.7715.6364-11.6711,2.4412-.1238.0572-.4156.1969-.5397.2487l-.0106-.9279Z"/>
        <rect class="cls-1" x="74.1535" width=".3155" height="9.9705"/>
        <g>
          <path class="cls-1" d="M76.911,2.6811h.2798l.4849,1.2354h-.2739l-.1064-.2832h-.501l-.1079.2832h-.2563l.481-1.2354ZM77.0477,2.9291h-.0034l-.1792.5098h.3613l-.1787-.5098Z"/>
          <path class="cls-1" d="M78.4984,2.9086c-.0396-.0176-.0806-.0308-.123-.04s-.085-.0137-.1284-.0137c-.0273,0-.0532.0034-.0767.0103s-.0439.0176-.0615.0317c-.0171.0142-.0308.0317-.041.0532-.0098.022-.0151.0474-.0151.0767,0,.022.0063.041.0186.0576.0117.0161.0278.0308.0483.0435.02.0127.0435.0244.0698.0352.0264.0112.0542.0225.0835.0337.0298.0117.0591.0239.0889.0376.0298.0132.0581.0288.085.0469s.0518.0391.0732.063c.022.0239.0396.0522.0527.0845.0083.02.0137.0425.0166.0669s.0044.0474.0044.0684c0,.0688-.0127.1265-.0381.1743-.0254.0474-.0596.0859-.1021.1157s-.0918.0508-.1475.0645c-.0562.0132-.1143.0195-.1753.0195-.0542,0-.1074-.0049-.1602-.0142-.0522-.0093-.1045-.021-.1572-.0342l.0234-.2227c.0425.0239.0879.043.1353.0562s.0957.0195.1445.0195c.0239,0,.0483-.0029.0742-.0088.0264-.0063.0498-.0156.0708-.0288.0215-.0127.0391-.0293.0527-.0488.0142-.02.021-.0439.021-.0723,0-.0132-.0015-.0264-.0049-.0396-.0029-.0137-.0083-.0254-.0161-.0366-.0068-.0098-.0161-.0195-.0278-.0293s-.0234-.0176-.0342-.0239c-.0293-.0171-.0601-.0317-.0913-.0444-.0317-.0127-.0635-.0249-.0942-.0371-.0171-.0063-.0332-.0137-.0493-.022s-.0322-.0171-.0474-.0269c-.0288-.0176-.0542-.0356-.0762-.0547s-.04-.04-.0547-.0625c-.0146-.0229-.0259-.0483-.0337-.0762-.0073-.0278-.0107-.0591-.0107-.0938,0-.0283.0024-.0562.0073-.0845s.0127-.0552.0234-.0806c.0112-.0254.0249-.0488.0425-.0713.0171-.022.0381-.041.062-.0571.0435-.0293.0903-.0508.1411-.0635.0513-.0132.1025-.0195.1543-.0195.0508,0,.1006.0034.1499.0103s.0981.0181.1465.0337l-.0234.2041Z"/>
          <path class="cls-1" d="M78.6927,2.6811h.2612l.2295.9873h.0034l.2109-.9873h.3359l.2178.9873h.0034l.2314-.9873h.2407l-.3218,1.2354h-.3188l-.2231-.9873h-.0034l-.2192.9873h-.3203l-.3276-1.2354Z"/>
          <path class="cls-1" d="M80.8758,2.6811h.2798l.4849,1.2354h-.2739l-.1064-.2832h-.501l-.1079.2832h-.2563l.481-1.2354ZM81.0125,2.9291h-.0034l-.1792.5098h.3613l-.1787-.5098Z"/>
          <path class="cls-1" d="M81.7782,2.6811h.3389c.041,0,.082.001.123.0029.041.0015.0806.0059.1182.0127s.0732.0176.106.0317.0615.0337.0854.0581c.0244.0249.0435.0562.0571.0933.0137.0376.0205.083.0205.1367,0,.0391-.0059.0747-.0181.1074s-.0293.061-.0518.0859-.0493.0449-.0806.061c-.0317.0156-.0664.0264-.1045.0312v.0034c.0176.0024.0327.0078.0464.0156.0137.0083.0259.0181.0361.0293.0107.0117.02.0244.0278.0391.0078.0142.0146.0293.021.0439l.1978.4829h-.2754l-.1484-.3853c-.0093-.0234-.0186-.0435-.0273-.0601-.0088-.0161-.0195-.0298-.0322-.0396-.0127-.0103-.0278-.0176-.0459-.0215-.0181-.0044-.04-.0068-.0664-.0068h-.0796v.5132h-.248v-1.2354ZM82.0262,3.2089h.0811c.0195,0,.041-.001.064-.0024.0229-.002.0459-.0054.0684-.0112s.0435-.0142.0625-.0244c.0195-.0107.0347-.0249.0464-.043.0078-.0122.0137-.0269.0166-.0435.0024-.0171.0039-.0327.0039-.0474,0-.0396-.0078-.0703-.0234-.0918-.0161-.0215-.0366-.0376-.062-.0479-.0254-.0107-.0532-.0166-.0845-.0181-.0312-.002-.0615-.0029-.0918-.0029h-.0811v.3325Z"/>
          <path class="cls-1" d="M84.3358,2.9203c-.1025-.0435-.209-.0654-.3188-.0654-.0679,0-.1294.0107-.1851.0317-.0552.0215-.1021.0518-.1411.0903-.0386.0391-.0688.0859-.0898.1411-.021.0547-.0312.1162-.0312.1841,0,.0635.0093.1221.0288.1758.019.0542.0469.1006.083.1396.0356.0391.0796.0698.1318.0918.0518.0225.1104.0332.1758.0332.0278,0,.0552-.001.082-.0034.0273-.002.0542-.0068.0806-.0137v-.3223h-.2617v-.1943h.4985v.665c-.0645.019-.1304.0347-.1978.0464-.0669.0117-.1343.0176-.2017.0176-.0449,0-.0889-.0024-.1318-.0078-.0435-.0049-.0854-.0137-.126-.0259-.041-.0122-.0806-.0278-.1191-.0479-.0381-.02-.0747-.0439-.1099-.0728-.0356-.0298-.0659-.0615-.0903-.0967-.0244-.0347-.0444-.0718-.0591-.1113-.0151-.0396-.0259-.0806-.0322-.1235s-.0093-.0869-.0093-.1318c0-.0322.002-.0645.0054-.0972.0039-.0332.0093-.0649.0161-.0962.0181-.0845.0469-.1562.0874-.2153.04-.0591.0889-.1069.146-.1445.0566-.0371.1211-.064.1929-.0811s.1484-.0254.23-.0254c.061,0,.1221.0039.1831.0117s.1206.021.1792.0391l-.0156.209Z"/>
          <path class="cls-1" d="M84.6278,2.6811h.3389c.041,0,.082.001.123.0029.041.0015.0801.0059.1182.0127.0371.0068.0732.0176.1055.0317.0332.0142.0615.0337.0859.0581.0244.0249.043.0562.0566.0933.0137.0376.0205.083.0205.1367,0,.0391-.0059.0747-.0176.1074-.0127.0327-.0293.061-.0518.0859s-.0498.0449-.0811.061c-.0312.0156-.0664.0264-.1045.0312v.0034c.0176.0024.0332.0078.0469.0156.0137.0083.0254.0181.0361.0293.0107.0117.0195.0244.0273.0391.0078.0142.0146.0293.0215.0439l.1973.4829h-.2754l-.1484-.3853c-.0088-.0234-.0186-.0435-.0273-.0601-.0088-.0161-.0195-.0298-.0322-.0396-.0127-.0103-.0273-.0176-.0459-.0215-.0176-.0044-.04-.0068-.0664-.0068h-.0791v.5132h-.248v-1.2354ZM84.8758,3.2089h.0811c.0195,0,.041-.001.0635-.0024.0234-.002.0459-.0054.0684-.0112s.0439-.0142.0625-.0244c.0195-.0107.0352-.0249.0469-.043.0078-.0122.0137-.0269.0166-.0435.002-.0171.0039-.0327.0039-.0474,0-.0396-.0078-.0703-.0234-.0918-.0166-.0215-.0371-.0376-.0625-.0479-.0254-.0107-.0527-.0166-.084-.0181-.0312-.002-.0615-.0029-.0918-.0029h-.0811v.3325Z"/>
          <path class="cls-1" d="M85.6688,3.2953c0-.0957.0137-.1821.0391-.2603.0264-.0781.0654-.145.1162-.2007.0518-.0552.1152-.0981.1904-.1284s.1621-.0454.2598-.0454.1836.0151.2588.0459c.0752.0303.1387.0737.1895.1294s.0898.1226.1172.2002c.0254.0781.0391.1646.0391.2593s-.0137.1812-.0391.2598c-.0273.0786-.0664.146-.1162.2026-.0518.0571-.1143.1011-.1895.1328-.0762.0317-.1621.0474-.2598.0474s-.1846-.0156-.2598-.0469-.1387-.0757-.1904-.1323c-.0508-.0566-.0898-.1245-.1162-.2031-.0254-.0781-.0391-.165-.0391-.2603ZM86.2743,2.8549c-.0625,0-.1152.0132-.1592.0391-.0439.0264-.0801.0605-.1084.1025-.0273.042-.0479.0898-.0605.1431s-.0186.1069-.0186.1611c0,.0547.0059.1084.0195.1616.0127.0527.0332.1001.0605.1416s.0635.0747.1074.1006c.0439.0254.0967.0381.1592.0381.0635,0,.1172-.0127.1611-.0386s.0801-.0601.1074-.1025c.0273-.042.0469-.0903.0596-.1436.0117-.0537.0186-.1079.0186-.1626s-.0068-.1084-.0195-.1611-.0322-.0996-.0605-.1411c-.0273-.0415-.0625-.0747-.1064-.1001s-.0977-.0381-.1602-.0381Z"/>
          <path class="cls-1" d="M87.0965,2.6811h.248v.7139c0,.0435.0029.0864.0107.1279.0068.042.0205.0791.0391.1113.0195.0327.0459.0591.0791.0786.0332.02.0752.0298.127.0298.0527,0,.0947-.0098.1289-.0293.0332-.0195.0596-.0454.0781-.0776s.0322-.0693.0391-.1113.0098-.0854.0098-.1294v-.7139h.248v.7896c0,.083-.0117.1538-.0342.2129-.0234.0591-.0566.1074-.0996.145-.043.0381-.0957.0654-.1582.083s-.1338.0264-.2119.0264c-.0791,0-.1494-.0088-.2119-.0264s-.1152-.0449-.1582-.083c-.043-.0376-.0762-.0859-.0996-.145-.0225-.0591-.0342-.1299-.0342-.2129v-.7896Z"/>
          <path class="cls-1" d="M88.3612,2.6811h.3203c.0596,0,.1191.0059.1807.0171.0605.0112.1182.0308.1719.0581.0283.0151.0518.0332.0723.0547.0195.021.0352.0449.0479.0713.0127.0259.0215.0537.0273.083.0049.0298.0078.0596.0078.0898,0,.0723-.0127.1333-.0371.1831s-.0586.0898-.1006.1211c-.043.0312-.0928.0537-.1494.0674-.0576.0137-.1182.0205-.1826.0205h-.1104v.4692h-.248v-1.2354ZM88.6092,3.2529h.0918c.0312,0,.0605-.0029.0879-.0088.0283-.0059.0527-.0161.0732-.0303.0215-.0142.0381-.0332.0498-.0566.0127-.0234.0186-.0527.0186-.0879,0-.0366-.0059-.0669-.0186-.0913-.0117-.0244-.0293-.0439-.0508-.0591s-.0469-.0259-.0752-.0322c-.0283-.0068-.0586-.0103-.0908-.0103h-.0859v.3765Z"/>
        </g>
        <g>
          <path class="cls-1" d="M76.7816,4.4418h.2139l.3706.9023h-.2095l-.0811-.207h-.3833l-.0825.207h-.1963l.3682-.9023ZM76.8861,4.623h-.0029l-.1367.3721h.2764l-.1367-.3721Z"/>
          <path class="cls-1" d="M77.472,4.6786h.1714v.0908h.0034c.0293-.0361.0625-.063.1001-.0801.0376-.0176.0806-.0259.1284-.0259.0425,0,.0786.0063.1084.0195s.0542.0317.0732.0547.0327.0508.0415.0825c.0088.0322.0137.0669.0137.1035v.4204h-.1812v-.3555c0-.022-.0005-.0435-.002-.064-.001-.0205-.0054-.041-.0132-.0625-.0093-.0249-.022-.042-.0386-.0508-.0161-.0093-.0376-.0137-.0645-.0137-.0303,0-.0557.0068-.0762.021-.02.0142-.0366.0322-.0488.0537s-.021.0454-.0264.0713-.0078.0508-.0078.0747v.3257h-.1816v-.6655Z"/>
          <path class="cls-1" d="M78.2982,4.6786h.1714v.0908h.0034c.0293-.0361.0625-.063.1001-.0801.0376-.0176.0806-.0259.1284-.0259.0425,0,.0786.0063.1084.0195s.0542.0317.0732.0547.0327.0508.0415.0825c.0088.0322.0137.0669.0137.1035v.4204h-.1812v-.3555c0-.022-.0005-.0435-.002-.064-.001-.0205-.0054-.041-.0132-.0625-.0093-.0249-.022-.042-.0386-.0508-.0161-.0093-.0376-.0137-.0645-.0137-.0303,0-.0557.0068-.0762.021-.02.0142-.0366.0322-.0488.0537s-.021.0454-.0264.0713-.0078.0508-.0078.0747v.3257h-.1816v-.6655Z"/>
          <path class="cls-1" d="M79.1283,4.392h.1816v.1655h-.1816v-.1655ZM79.1283,4.6786h.1816v.6655h-.1816v-.6655Z"/>
          <path class="cls-1" d="M79.4237,4.6786h.1943l.1733.4844h.0029l.1675-.4844h.1812l-.2568.6655h-.2041l-.2583-.6655Z"/>
          <path class="cls-1" d="M80.8109,5.3071c-.0361.02-.0747.0342-.1157.0415-.0405.0078-.082.0112-.1235.0112-.0586,0-.1104-.0073-.1553-.0225-.0454-.0146-.083-.0366-.1138-.0659-.0312-.0293-.0547-.0654-.0708-.1084-.0156-.043-.0239-.0923-.0239-.1484,0-.0483.0068-.0938.02-.1362.0132-.043.0332-.0801.0596-.1118.0269-.0317.0601-.0571.1006-.0757.0405-.0181.0884-.0273.1431-.0273.0249,0,.0503.0015.0752.0054.0254.0034.0498.0093.0732.0181s.0449.02.0649.0347c.0195.0146.0366.0327.0508.0542.0132.02.0239.042.0327.0649.0083.0234.0151.0479.0205.0723.0049.0249.0083.0498.0107.0747.002.0254.0034.0493.0034.0723v.0054h-.4814c.002.0264.0083.0503.019.0708.0112.021.0249.0386.0425.0527s.0376.0254.061.0327c.0234.0078.0488.0117.0762.0117.041,0,.0815-.0063.1201-.019s.0757-.0288.1108-.0488v.1416ZM80.6893,4.9462c-.001-.022-.0044-.0425-.0103-.0615-.0063-.0195-.0156-.0361-.0273-.0503-.0117-.0137-.0269-.0249-.0449-.0327-.0181-.0083-.0396-.0122-.0645-.0122s-.0469.0039-.0659.0122c-.019.0078-.0356.0186-.0493.0327-.0137.0137-.0244.0303-.0317.0493-.0078.019-.0127.04-.0142.0625h.3081Z"/>
          <path class="cls-1" d="M81.0086,4.6786h.1611v.1514h.0024c.0039-.0205.0107-.04.022-.0576.0107-.0176.0234-.0342.0376-.0498.0166-.0186.0366-.0332.0591-.0435.0229-.0107.0469-.0156.0723-.0156.0093,0,.0186,0,.0278.001s.0186.0024.0278.0039v.1743c-.0122-.0059-.0259-.0098-.04-.0117-.0142-.0015-.0278-.0024-.0415-.0024-.0239,0-.0444.0044-.061.0132-.0161.0088-.0298.0205-.0405.0352-.0112.0146-.0195.0312-.0259.0503-.0059.019-.0103.0381-.0132.0581s-.0049.04-.0054.0601-.001.0381-.001.0547v.2441h-.1816v-.6655Z"/>
          <path class="cls-1" d="M81.9452,4.8178c-.0278-.0098-.0542-.0171-.0796-.0215-.0259-.0044-.0532-.0068-.0825-.0068-.0122,0-.0249.001-.0376.0034s-.0239.0063-.0342.0122c-.0103.0054-.0186.0132-.0249.0225-.0068.0098-.0103.0215-.0103.0356,0,.0132.0049.0239.0137.0322.0088.0078.021.0151.0356.021s.0312.0112.0503.0161c.019.0054.0381.0112.0581.0176.0195.0063.0391.0146.0581.0239.0186.0093.0356.0215.0503.0361.0146.0151.0264.0332.0356.0547.0088.021.0137.0474.0137.0781,0,.0396-.0088.0728-.0259.1006-.0166.0273-.0391.0498-.0664.0674-.0278.0171-.0591.0293-.0938.0371-.0352.0078-.0708.0117-.1069.0117-.0347,0-.0693-.0024-.1035-.0073-.0342-.0054-.0684-.0122-.1016-.021l.0103-.1426c.0566.0293.1167.0444.1797.0444.0132,0,.0269-.0015.0405-.0044.0137-.0034.0264-.0078.0381-.0146.0117-.0063.021-.0146.0283-.0249.0078-.0103.0112-.0229.0112-.0376,0-.0073-.0005-.0146-.0024-.0225s-.0049-.0146-.0098-.0205c-.0073-.0088-.0166-.0161-.0288-.022-.0122-.0054-.0259-.0107-.0415-.0156s-.0322-.0093-.0498-.0137-.0347-.0098-.0518-.0161-.0337-.0142-.0498-.0229c-.0156-.0093-.0293-.0205-.0415-.0337-.0117-.0132-.0215-.0293-.0288-.0479-.0068-.019-.0107-.041-.0107-.0674,0-.0366.0078-.0679.0234-.0938.0156-.0264.0361-.0474.062-.0645.0254-.0166.0547-.0288.0874-.0361.0327-.0078.0659-.0117.1001-.0117s.0674.002.0996.0059.0649.0103.0977.0186l-.0117.1299Z"/>
          <path class="cls-1" d="M82.1624,4.7138c.04-.0166.0811-.0293.1226-.0381.041-.0083.084-.0122.1279-.0122.0957,0,.168.022.2178.0669s.0747.1138.0747.2061c0,.0688.0005.1367.002.2041.001.0669.0039.1353.0088.2036h-.1597c-.0024-.0166-.0044-.0327-.0059-.0493s-.0024-.0337-.0024-.0503h-.0024c-.0112.0181-.0244.0342-.04.0483-.0156.0146-.0327.0264-.0513.0366-.019.0098-.0391.0171-.0601.0225s-.0425.0078-.064.0078c-.0303,0-.0601-.0044-.0894-.0132-.0288-.0088-.0547-.0215-.0776-.0381-.0229-.0171-.0415-.0376-.0552-.0625-.0142-.0244-.021-.0522-.021-.084,0-.022.0024-.043.0078-.063.0049-.02.0142-.0396.0273-.0581.0176-.0244.0391-.0435.064-.0576.0249-.0146.0522-.0254.0811-.0327.0293-.0073.0596-.0122.0908-.0142.0317-.002.0625-.0029.0928-.0029h.0459c.0146.0005.0293.0005.0435.0005,0-.0269-.0029-.0493-.0093-.0674-.0063-.0186-.0156-.0332-.0288-.0449-.0127-.0112-.0293-.0195-.0488-.0244-.02-.0054-.0435-.0078-.0703-.0078-.04,0-.0781.0063-.1138.019-.0361.0127-.0693.0303-.1011.0537l-.0059-.1484ZM82.2606,5.1518c0,.0151.0034.0278.0103.0381.0073.0103.0161.0186.0273.0254.0107.0063.0229.0112.0366.0137.0137.0029.0273.0044.0405.0044.0288,0,.0542-.0054.0747-.0161.021-.0107.0381-.0254.0513-.043.0132-.0181.0229-.0386.0293-.0615.0068-.0234.0098-.0474.0098-.0723v-.0034h-.1094c-.019,0-.0386.002-.0591.0054-.02.0039-.0386.0103-.0552.0195-.0166.0088-.0298.021-.0405.0356s-.0156.0327-.0156.0542Z"/>
          <path class="cls-1" d="M82.888,4.6786h.1611v.1514h.0024c.0039-.0205.0107-.04.022-.0576.0107-.0176.0234-.0342.0376-.0498.0166-.0186.0366-.0332.0591-.0435.0229-.0107.0469-.0156.0723-.0156.0093,0,.0186,0,.0278.001s.0186.0024.0278.0039v.1743c-.0122-.0059-.0259-.0098-.04-.0117-.0142-.0015-.0278-.0024-.0415-.0024-.0239,0-.0444.0044-.061.0132-.0161.0088-.0298.0205-.0405.0352-.0112.0146-.0195.0312-.0259.0503-.0059.019-.0103.0381-.0132.0581s-.0049.04-.0054.0601-.001.0381-.001.0547v.2441h-.1816v-.6655Z"/>
          <path class="cls-1" d="M83.7005,5.1645h.0024l.168-.4858h.1836l-.2612.6606c-.0093.0234-.0181.0469-.0273.0708-.0088.0239-.019.0464-.0298.0679s-.0229.0415-.0366.0601c-.0137.019-.0293.0352-.0479.0493-.0181.0137-.0396.0244-.0635.0322-.0244.0078-.0522.0117-.084.0117-.0435,0-.0864-.0063-.1289-.0181l.0117-.1284c.0142.0054.0298.0088.0469.0103.0166.001.0327.002.0469.002.0171,0,.0327-.0029.0474-.0083s.0278-.0142.0396-.0259c.0093-.0098.0161-.0205.021-.0327.0049-.0117.0078-.0244.0093-.0381,0-.0005,0-.0029.0005-.0073s.0005-.0068,0-.0073l-.2661-.6987h.2002l.168.4858Z"/>
        </g>
        <g>
          <path class="cls-1" d="M76.4173,6.8832v-.1587c.019-.0181.043-.0396.0708-.0649s.0571-.0527.0874-.0825c.0298-.0298.0601-.061.0898-.0933.0293-.0327.0562-.0654.0801-.0986s.043-.0654.0576-.0972.0225-.0615.0225-.0889c0-.0225-.0044-.042-.0132-.0581-.0083-.0161-.02-.0293-.0337-.0396-.0142-.0103-.0308-.0181-.0493-.0229-.0181-.0049-.0376-.0068-.0581-.0068-.0405,0-.0786.0068-.1143.0215s-.0698.0327-.1035.0542l-.0146-.1572c.0439-.022.0889-.0386.1362-.0503.0469-.0112.0952-.0171.144-.0171.0454,0,.0859.0054.1226.0166.0361.0112.0674.0278.0928.0503.0259.0229.0459.0518.0596.0859.0142.0347.021.0757.021.1235,0,.0259-.0034.0518-.0098.0771s-.0146.0503-.0259.0747c-.0107.0239-.0234.0474-.0376.0698-.0146.0225-.0298.0435-.0459.0635-.0361.0444-.0737.0874-.1133.1289-.0396.042-.0806.082-.123.1216h.3853v.1484h-.6274Z"/>
          <path class="cls-1" d="M77.4886,6.8998c-.0454,0-.085-.0068-.1191-.021-.0337-.0137-.0625-.0327-.0869-.0562-.0244-.0239-.0439-.0518-.0596-.084-.0161-.0317-.0283-.0654-.0371-.1016-.0093-.0356-.0156-.0728-.019-.1113-.0034-.0381-.0054-.0757-.0054-.1123,0-.0356.002-.0723.0063-.1104.0039-.0381.0103-.0757.0195-.1118s.022-.0708.0381-.1035c.0161-.0322.0361-.061.0605-.0854.0239-.0244.0527-.0439.0859-.0581s.0723-.0215.1167-.0215c.0464,0,.0864.0068.1211.021.0342.0137.0635.0327.0879.0566s.0444.0522.0601.0845c.0156.0317.0278.0664.0371.1025.0088.0361.0151.0737.019.1128.0034.0386.0049.0762.0049.1133,0,.0366-.002.0742-.0054.1123-.0039.0386-.0103.0757-.0195.1118s-.022.0698-.0376.1016c-.0161.0317-.0361.0596-.0605.0835-.0244.0234-.0537.0425-.0879.0562-.0342.0142-.0737.021-.1191.021ZM77.4891,6.7592c.0186,0,.0352-.0039.0493-.0112s.0259-.0166.0356-.0283c.0098-.0122.0176-.0259.0239-.041.0063-.0156.0117-.0317.0156-.0483.0044-.0181.0078-.0371.0112-.0566.0029-.0195.0044-.0386.0044-.0571v-.1387c0-.019-.0005-.0396-.001-.0625s-.0024-.0464-.0054-.0693c-.0034-.0234-.0078-.0464-.0137-.0684s-.0142-.0415-.0244-.0581c-.0103-.0171-.0234-.0308-.0391-.041-.0156-.0098-.0342-.0151-.0566-.0151-.0239,0-.0439.0063-.0596.0195-.0161.0127-.0293.0293-.0396.0498-.0098.021-.0176.0439-.0229.0698s-.0093.0518-.0117.0776-.0034.0508-.0039.0742v.0591c0,.0161,0,.0356.0005.0586s.002.0474.0044.0732.0063.0513.0117.0767.0132.0483.0234.0688.0229.0366.0391.0493c.0156.0127.0352.019.0586.019Z"/>
          <path class="cls-1" d="M77.9217,6.8832v-.1587c.019-.0181.043-.0396.0708-.0649s.0571-.0527.0874-.0825c.0298-.0298.0601-.061.0898-.0933.0293-.0327.0562-.0654.0801-.0986s.043-.0654.0576-.0972.0225-.0615.0225-.0889c0-.0225-.0044-.042-.0132-.0581-.0083-.0161-.02-.0293-.0337-.0396-.0142-.0103-.0308-.0181-.0493-.0229-.0181-.0049-.0376-.0068-.0581-.0068-.0405,0-.0786.0068-.1143.0215s-.0698.0327-.1035.0542l-.0146-.1572c.0439-.022.0889-.0386.1362-.0503.0469-.0112.0952-.0171.144-.0171.0454,0,.0859.0054.1226.0166.0361.0112.0674.0278.0928.0503.0259.0229.0459.0518.0596.0859.0142.0347.021.0757.021.1235,0,.0259-.0034.0518-.0098.0771s-.0146.0503-.0259.0747c-.0107.0239-.0234.0474-.0376.0698-.0146.0225-.0298.0435-.0459.0635-.0361.0444-.0737.0874-.1133.1289-.0396.042-.0806.082-.123.1216h.3853v.1484h-.6274Z"/>
          <path class="cls-1" d="M79.2406,6.1098c-.0259-.0117-.0527-.0215-.0806-.0283-.0278-.0063-.0557-.0098-.0845-.0098-.0371,0-.0698.0073-.0991.0229-.0288.0151-.0527.0391-.0713.0708-.0181.0303-.0312.062-.04.0957-.0083.0332-.0132.0679-.0142.103l.0029.0024c.0435-.0635.1045-.0952.1826-.0952.0459,0,.0859.0068.1201.0205.0347.0132.0635.0322.0864.0571s.0405.0552.0522.0908.0176.0757.0176.1206c0,.0508-.0063.0972-.0195.1392-.0127.042-.0317.0776-.0576.1074s-.0586.0527-.0981.0684c-.0396.0161-.0859.0244-.1392.0244-.0469,0-.0874-.0063-.1221-.019-.0352-.0132-.0645-.0312-.0889-.0552-.0244-.0234-.0444-.0527-.0596-.0874s-.0269-.0737-.0347-.1172c-.0054-.0293-.0093-.0581-.0117-.0869s-.0034-.0581-.0034-.0879c0-.0625.0063-.1226.0195-.1807.0127-.0586.0332-.1157.0615-.1709.0156-.0303.0342-.0566.0557-.0781s.0454-.0391.0718-.0532c.0259-.0137.0542-.0239.0845-.0308.0308-.0063.0625-.0098.0952-.0098.0684,0,.1348.0112.1987.0337l-.0244.1533ZM78.9945,6.4125c-.0249,0-.0454.0054-.0615.0161-.0161.0112-.0293.0254-.0391.0425s-.0166.0366-.0205.0576c-.0039.0215-.0059.0425-.0059.0625,0,.021.0024.041.0073.061s.0122.0381.0229.0537c.0103.0161.0234.0288.04.0386s.0366.0146.0605.0146c.0229,0,.0425-.0054.0586-.0156.0156-.0103.0288-.0234.0386-.0396.0093-.0161.0166-.0342.021-.0542s.0063-.04.0063-.0601c0-.021-.002-.042-.0059-.063-.0039-.0215-.0107-.0405-.0205-.0571-.0103-.0171-.0234-.0308-.0396-.0415-.0166-.0107-.0376-.0156-.0625-.0156Z"/>
          <path class="cls-1" d="M80.5433,6.8701c-.0347.0098-.0698.0171-.106.022-.0361.0054-.0723.0078-.1084.0078-.0347,0-.0684-.002-.1011-.0059-.0332-.0039-.0654-.0107-.0967-.02s-.0615-.0215-.0908-.0366-.0571-.0337-.084-.0557c-.0273-.0225-.0503-.0474-.0693-.0737-.0186-.0269-.0337-.0552-.0449-.0854-.0117-.0298-.0195-.0615-.0244-.0942s-.0073-.0664-.0073-.1006c0-.0249.0015-.0498.0044-.0747.0029-.0254.0068-.0498.0122-.0732.0137-.0649.0356-.1196.0664-.165.0308-.0449.0684-.082.1118-.1104s.0928-.0488.1475-.062c.0552-.0132.1138-.0195.1763-.0195.0366,0,.0728.0034.1084.0107.0356.0068.0703.0166.105.0283l-.0132.1597c-.0181-.0098-.0352-.0181-.0513-.0244-.0156-.0063-.0317-.0117-.0479-.0156-.0161-.0034-.0327-.0063-.0498-.0078s-.0356-.002-.0562-.002c-.0498,0-.0942.0088-.1333.0264-.0391.0181-.0723.0425-.0996.0732-.0269.0308-.0474.0669-.062.1084-.0142.042-.0215.0864-.0215.1338,0,.0483.0073.0933.0225.1343.0146.0415.0356.0771.063.1069.0278.0298.0615.0532.1011.0703s.0845.0254.1348.0254c.0151,0,.0322-.0005.0503-.0024.0186-.0015.0366-.0039.0552-.0073.0186-.0029.0366-.0073.0537-.0122.0176-.0044.0332-.0103.0474-.0171l.0078.1587Z"/>
          <path class="cls-1" d="M81.2249,6.8442c-.0361.021-.0747.0356-.1157.0435-.0405.0083-.082.0122-.1235.0122-.0586,0-.1104-.0078-.1553-.0234-.0454-.0156-.083-.0391-.1138-.0693-.0312-.0308-.0547-.0684-.0708-.1133-.0156-.0449-.0239-.0967-.0239-.1553,0-.0508.0068-.0981.02-.1431.0132-.0444.0332-.0835.0596-.1167.0269-.0332.0601-.0596.1006-.0791s.0884-.0293.1431-.0293c.0249,0,.0503.002.0752.0059.0254.0039.0498.0103.0732.019.0234.0093.0449.021.0649.0366.0195.0151.0366.0337.0508.0562.0132.021.0239.0439.0327.0684.0083.0244.0151.0498.0205.0757.0049.0259.0083.0522.0107.0781.002.0264.0034.0518.0034.0757v.0054h-.4814c.002.0278.0083.0527.019.0742.0112.022.0249.0405.0425.0552.0176.0151.0376.0264.061.0347.0234.0078.0488.0117.0762.0117.041,0,.0815-.0068.1201-.02s.0757-.0298.1108-.0508v.1479ZM81.1034,6.4662c-.001-.0225-.0044-.0439-.0103-.064-.0063-.02-.0156-.0376-.0273-.0522-.0117-.0151-.0269-.0264-.0449-.0347s-.0396-.0127-.0645-.0127-.0469.0044-.0659.0127-.0356.0195-.0493.0342-.0244.0317-.0317.0518c-.0078.02-.0127.042-.0142.0649h.3081Z"/>
          <path class="cls-1" d="M81.4227,5.8686h.1816v1.0146h-.1816v-1.0146Z"/>
          <path class="cls-1" d="M82.3529,6.8442c-.0361.021-.0747.0356-.1157.0435-.0405.0083-.082.0122-.1235.0122-.0586,0-.1104-.0078-.1553-.0234-.0454-.0156-.083-.0391-.1138-.0693-.0312-.0308-.0547-.0684-.0708-.1133-.0156-.0449-.0239-.0967-.0239-.1553,0-.0508.0068-.0981.02-.1431.0132-.0444.0332-.0835.0596-.1167.0269-.0332.0601-.0596.1006-.0791s.0884-.0293.1431-.0293c.0249,0,.0503.002.0752.0059.0254.0039.0498.0103.0732.019.0234.0093.0449.021.0649.0366.0195.0151.0366.0337.0508.0562.0132.021.0239.0439.0327.0684.0083.0244.0151.0498.0205.0757.0049.0259.0083.0522.0107.0781.002.0264.0034.0518.0034.0757v.0054h-.4814c.002.0278.0083.0527.019.0742.0112.022.0249.0405.0425.0552.0176.0151.0376.0264.061.0347.0234.0078.0488.0117.0762.0117.041,0,.0815-.0068.1201-.02s.0757-.0298.1108-.0508v.1479ZM82.2313,6.4662c-.001-.0225-.0044-.0439-.0103-.064-.0063-.02-.0156-.0376-.0273-.0522-.0117-.0151-.0269-.0264-.0449-.0347s-.0396-.0127-.0645-.0127-.0469.0044-.0659.0127-.0356.0195-.0493.0342-.0244.0317-.0317.0518c-.0078.02-.0127.042-.0142.0649h.3081Z"/>
          <path class="cls-1" d="M82.5467,5.8686h.1816v.4072h.0024c.0254-.0361.0552-.063.0898-.0796.0347-.0171.0742-.0259.1182-.0259.0542,0,.1001.0103.1377.0298.0371.02.0674.0464.0903.0796s.0396.0718.0493.1157c.0103.0439.0151.0898.0151.1377,0,.0474-.0049.0933-.0151.1372-.0103.0444-.0273.0835-.0503.1177-.0229.0337-.0532.061-.0903.0815-.0376.02-.083.0303-.1367.0303-.0425,0-.082-.0083-.1187-.0254-.0366-.0166-.0684-.042-.0947-.0762h-.0024v.085h-.1763v-1.0146ZM82.8919,6.3115c-.0298,0-.0552.0068-.0757.021-.021.0142-.0376.0322-.0503.0542s-.022.0464-.0278.0728c-.0059.0269-.0088.0527-.0088.0776,0,.0239.0034.0488.0093.0747.0063.0259.0156.0498.0288.0718.0127.0215.0293.0396.0493.0542.02.0142.0444.0215.0718.0215.0298,0,.0542-.0073.0742-.022s.0356-.0327.0474-.0547.0195-.0464.0244-.0732c.0049-.0264.0073-.0518.0073-.0762s-.002-.0493-.0063-.0757c-.0044-.0259-.0122-.0503-.0234-.0718-.0112-.022-.0269-.0396-.0459-.0537-.0195-.0137-.0439-.0205-.0742-.0205Z"/>
          <path class="cls-1" d="M83.3768,6.1865h.1611v.1587h.0024c.0039-.022.0107-.042.022-.0605.0107-.0181.0234-.0356.0376-.0518.0166-.0195.0366-.0347.0591-.0459.0229-.0107.0469-.0166.0723-.0166.0093,0,.0186.0005.0278.0015s.0186.0024.0278.0039v.1826c-.0122-.0063-.0259-.0103-.04-.0122-.0142-.0015-.0278-.0024-.0415-.0024-.0239,0-.0444.0044-.061.0137-.0161.0093-.0298.0215-.0405.0366-.0112.0151-.0195.0327-.0259.0527-.0059.0195-.0103.04-.0132.061s-.0049.042-.0054.0625c-.0005.021-.001.04-.001.0576v.2554h-.1816v-.6968Z"/>
          <path class="cls-1" d="M83.93,6.2236c.04-.0176.0811-.0308.1226-.04.041-.0088.084-.0132.1279-.0132.0957,0,.168.0234.2178.0703.0498.0474.0747.1191.0747.2158,0,.0718.0005.1431.002.2134.001.0703.0039.1416.0088.2134h-.1597c-.0024-.0171-.0044-.0347-.0059-.0518-.0015-.0176-.0024-.0352-.0024-.0527h-.0024c-.0112.019-.0244.0361-.04.0508-.0156.0151-.0327.0278-.0513.0381-.019.0103-.0391.0186-.0601.0239s-.0425.0083-.064.0083c-.0303,0-.0601-.0049-.0894-.0142-.0288-.0088-.0547-.0225-.0776-.04s-.0415-.0391-.0552-.0649c-.0142-.0259-.021-.0552-.021-.0879,0-.0229.0024-.0449.0078-.0659.0049-.0215.0142-.0415.0273-.061.0176-.0254.0391-.0454.064-.0605s.0522-.0264.0811-.0337c.0293-.0078.0596-.0127.0908-.0151.0317-.002.0625-.0034.0928-.0034.0156,0,.0308.0005.0459.0005.0146.0005.0293.0005.0435.0005,0-.0278-.0029-.0518-.0093-.0708s-.0156-.0347-.0288-.0469c-.0127-.0117-.0293-.0205-.0488-.0259-.02-.0054-.0435-.0078-.0703-.0078-.04,0-.0781.0063-.1138.02-.0361.0132-.0693.0317-.1011.0562l-.0059-.1553ZM84.0282,6.6816c0,.0161.0034.0293.0103.04.0073.0107.0161.0195.0273.0264.0107.0068.0229.0117.0366.0146s.0273.0044.0405.0044c.0288,0,.0542-.0059.0747-.0171.021-.0112.0381-.0259.0513-.0449.0132-.0186.0229-.04.0293-.064.0068-.0244.0098-.0493.0098-.0757v-.0039h-.1094c-.019,0-.0386.002-.0591.0059-.02.0044-.0386.0107-.0552.0205-.0166.0093-.0298.022-.0405.0371-.0107.0156-.0156.0342-.0156.0566Z"/>
          <path class="cls-1" d="M84.9315,6.8998c-.0361,0-.0679-.0054-.0952-.0151-.0278-.0103-.0508-.0249-.0693-.0444-.0181-.0195-.0322-.043-.0415-.0708-.0098-.0283-.0146-.0601-.0146-.0957v-.3545h-.1333v-.1328h.1333v-.1396l.1816-.0581v.1978h.1611v.1328h-.1611v.3301c0,.0142.001.0278.0039.0405.0029.0132.0078.0249.0146.0352s.0156.0186.0264.0249c.0107.0059.0244.0093.04.0093.0146,0,.0283-.0015.043-.0039.0146-.0029.0273-.0078.04-.0156l.0049.1436c-.0215.0068-.0439.0112-.0664.0132-.0225.0024-.0449.0034-.0674.0034Z"/>
          <path class="cls-1" d="M85.1815,5.8867h.1816v.1729h-.1816v-.1729ZM85.1815,6.1865h.1816v.6968h-.1816v-.6968Z"/>
          <path class="cls-1" d="M85.5096,6.54c0-.0547.0088-.105.0254-.1499.0176-.0454.042-.0845.0732-.1167.0322-.0327.0703-.0576.1152-.0757.0439-.0181.0947-.0273.1494-.0273.0557,0,.1064.0093.1514.0269.0449.0181.084.043.1152.0752.0322.0327.0566.0713.0732.1167.0176.0454.0254.0957.0254.1509,0,.0542-.0088.1035-.0264.1479s-.043.082-.0752.1133-.0703.0557-.1152.0728-.0947.0259-.1484.0259-.1025-.0088-.1465-.0264c-.0449-.0171-.083-.0415-.1152-.0732-.0322-.0312-.0576-.0693-.0752-.1133-.0176-.0444-.0264-.0933-.0264-.147ZM85.6991,6.518c0,.0063,0,.0132.001.02s.001.0137.002.02c.0029.0181.0059.0356.0088.0527s.0078.0327.0146.0479c.0059.0151.0146.0288.0244.042s.0234.0249.04.0352c.0137.0088.0264.0151.04.0186.0137.0029.0283.0049.0439.0049.0352,0,.0645-.0073.0869-.0215.0225-.0137.041-.0322.0537-.0552.0127-.0225.0215-.0483.0273-.0771.0049-.0288.0068-.0581.0068-.0874,0-.0278-.0029-.0542-.0098-.0791-.0078-.0249-.0186-.0469-.0322-.0654-.0146-.019-.0322-.0342-.0547-.0454-.0215-.0112-.0479-.0166-.0781-.0166-.0293,0-.0547.0059-.0762.0171-.0215.0117-.04.0273-.0547.0464s-.0254.041-.0332.0659c-.0068.0249-.0107.0508-.0107.0771Z"/>
          <path class="cls-1" d="M86.3797,6.1865h.1719v.0952h.0029c.0293-.0381.0625-.0659.1006-.084.0371-.0181.0801-.0273.1279-.0273.043,0,.0781.0073.1084.021s.0537.0327.0732.0571.0332.0532.041.0864c.0098.0337.0137.0698.0137.1084v.4399h-.1807v-.3721c0-.0229-.001-.0454-.002-.0669s-.0049-.043-.0127-.0654c-.0098-.0264-.0225-.0439-.0391-.0532-.0156-.0098-.0371-.0142-.0645-.0142-.0303,0-.0557.0073-.0762.022-.0195.0146-.0361.0332-.0488.0562-.0117.0225-.0205.0474-.0264.0747-.0049.0269-.0078.0532-.0078.0781v.3408h-.1816v-.6968Z"/>
        </g>
      </g>
    </g>
  </g>
</svg>